<svg height="24" viewBox="0 0 24 24" width="24" xmlns="http://www.w3.org/2000/svg"><path d="m5.44 7.96.52-.53c.58-.58 1.54-.58 2.14.04l.02.03c.49.5 1.14.74 1.85.81.97.09 1.91.61 2.53 1.55.68 1.08.67 2.52-.04 3.59-1.2 1.85-3.71 2.05-5.18.55-.56-.55-.88-1.26-.96-2-.08-.73-.37-1.42-.88-1.93-.58-.57-.58-1.53 0-2.11m4.2 8.04c-1.17 0-2.26-.45-3.07-1.28-.7-.72-1.14-1.62-1.25-2.6-.03-.3-.12-.69-.36-1.05-.6.83-.96 1.83-.96 2.93 0 1.64.8 3.09 2.03 4h12.97v-1c0-3.6-2.39-6.65-5.66-7.65.89 1.4.87 3.27-.04 4.65-.8 1.25-2.18 2-3.66 2m5.14-8.44h1.27c.87 0 1.63.61 1.63 1.7v.74h1.25v-1c0-1.5-1.33-2.64-2.88-2.64h-1.27c-.83 0-1.54-.82-1.54-1.66s.71-1.46 1.54-1.46v-1.24c-1.54 0-2.78 1.24-2.78 2.78s1.24 2.78 2.78 2.78m-10.28-.01c.06-.1.14-.2.23-.3l.52-.52c.09-.09.19-.16.29-.23l-1.41-1.43c.14-.27.09-.62-.13-.85-.3-.29-.78-.29-1.07 0-.14.14-.21.31-.22.49-.18.01-.35.08-.49.22-.29.29-.29.77 0 1.07.23.22.57.27.85.13zm13.89-3.16c.51-.51.83-1.2.83-1.97h-1.25c0 .83-.7 1.53-1.53 1.53v1.24c1.86 0 3.32 1.52 3.32 3.38v2.43h1.24v-2.43c0-1.85-1.06-3.44-2.61-4.18m-13.39 16.61h14c1.11 0 2-.89 2-2h-18c0 1.11.9 2 2 2z"/></svg>